<svg width="52" height="52" viewBox="0 0 52 52" fill="none" xmlns="http://www.w3.org/2000/svg">
<path d="M43.3334 29.7916C43.3334 29.3607 43.1621 28.9473 42.8574 28.6426C42.5527 28.3379 42.1393 28.1666 41.7084 28.1666H35.2084C34.7774 28.1666 34.3641 28.3379 34.0593 28.6426C33.7546 28.9473 33.5834 29.3607 33.5834 29.7916V44.4166H30.3334V9.20831C30.3334 7.63098 30.329 6.60831 30.2294 5.85865C30.134 5.15448 29.9802 4.93348 29.8567 4.80998C29.7332 4.68648 29.5122 4.53265 28.808 4.43731C28.0562 4.33765 27.0357 4.33331 25.4584 4.33331C23.881 4.33331 22.8584 4.33765 22.1087 4.43731C21.4045 4.53265 21.1835 4.68648 21.06 4.80998C20.9365 4.93348 20.7827 5.15448 20.6874 5.85865C20.5877 6.61048 20.5834 7.63098 20.5834 9.20831V44.4166H17.3334V18.9583C17.3334 18.5273 17.1621 18.114 16.8574 17.8093C16.5527 17.5045 16.1393 17.3333 15.7084 17.3333H9.20835C8.77738 17.3333 8.36405 17.5045 8.0593 17.8093C7.75456 18.114 7.58335 18.5273 7.58335 18.9583V44.4166H3.79169C3.36071 44.4166 2.94739 44.5878 2.64264 44.8926C2.33789 45.1973 2.16669 45.6107 2.16669 46.0416C2.16669 46.4726 2.33789 46.8859 2.64264 47.1907C2.94739 47.4954 3.36071 47.6666 3.79169 47.6666H47.125C47.556 47.6666 47.9693 47.4954 48.2741 47.1907C48.5788 46.8859 48.75 46.4726 48.75 46.0416C48.75 45.6107 48.5788 45.1973 48.2741 44.8926C47.9693 44.5878 47.556 44.4166 47.125 44.4166H43.3334V29.7916Z" fill="#67CEEF"/>
</svg>
