<svg width="1280" height="1173" viewBox="0 0 1280 1173" fill="none" xmlns="http://www.w3.org/2000/svg">
<rect y="930" width="1280" height="243" fill="#67CEEF"/>
<path d="M1280 773.38C600.267 773.38 143.444 704.46 0 670V931.65H1280V773.38Z" fill="#67CEEF"/>
<path d="M0 143C679.733 143 1136.56 337.767 1280 389V0H0V143Z" fill="#67CEEF"/>
<g opacity="0.06">
<path d="M210.182 414.438C212.075 410.817 213.021 409.008 214.735 408.472C216.448 407.935 218.257 408.881 221.878 410.774L235.318 417.802C238.939 419.696 240.748 420.641 241.285 422.355C241.821 424.068 240.876 425.877 238.982 429.498L237.978 431.418C235.139 436.848 233.718 439.565 231.149 440.368C228.581 441.174 225.864 439.753 220.434 436.914L214.674 433.902C209.244 431.063 206.527 429.642 205.724 427.073C204.918 424.505 206.339 421.788 209.178 416.358L210.182 414.438Z" stroke="black"/>
<path d="M237.238 418.806L238.744 415.926C239.942 413.635 240.181 410.961 239.408 408.493C238.635 406.026 236.913 403.966 234.622 402.768C232.33 401.57 229.657 401.331 227.189 402.104C224.722 402.877 222.662 404.599 221.464 406.89L219.958 409.77" stroke="black" stroke-linecap="round"/>
<path d="M1037.16 536.047L1052.25 525.908L1070.41 526.853M1049.19 514.824L1059.15 550.847" stroke="black" stroke-width="1.5"/>
<path d="M1039.05 541.491C1042.83 548.993 1050.47 551.284 1055.28 551.97C1056.78 552.184 1057.52 552.292 1059.41 551.771C1061.29 551.25 1061.87 550.774 1063.05 549.824C1063.99 549.063 1065.02 548.124 1066.05 547.018M1070.24 540.629C1071.64 537.308 1072.2 533.312 1070.92 528.684L1070.12 525.776C1068.48 519.868 1067.67 516.914 1066.69 516.114C1065.72 515.314 1062.68 515.131 1056.6 514.766L1055.44 514.696C1052.27 514.504 1050.69 514.409 1049.19 514.824C1047.69 515.239 1046.38 516.134 1043.76 517.926L1042.8 518.579C1037.77 522.018 1035.26 523.737 1034.84 524.922C1034.41 526.109 1035.23 529.064 1036.86 534.97L1037.16 536.047" stroke="black" stroke-width="1.5" stroke-linecap="round"/>
<path d="M686.161 395.047L701.255 384.908L719.413 385.853M698.19 373.824L708.15 409.847" stroke="black" stroke-width="1.5"/>
<path d="M688.05 400.491C691.828 407.993 699.473 410.284 704.283 410.971C705.775 411.184 706.523 411.292 708.406 410.771C710.29 410.25 710.874 409.774 712.045 408.824C712.986 408.063 714.023 407.124 715.046 406.018M719.245 399.629C720.639 396.308 721.199 392.312 719.919 387.684L719.115 384.776C717.482 378.868 716.665 375.914 715.692 375.114C714.721 374.314 711.682 374.131 705.601 373.766L704.442 373.696C701.273 373.504 699.69 373.409 698.19 373.824C696.69 374.239 695.38 375.134 692.76 376.926L691.801 377.579C686.772 381.018 684.258 382.737 683.836 383.922C683.413 385.109 684.23 388.064 685.863 393.97L686.161 395.047" stroke="black" stroke-width="1.5" stroke-linecap="round"/>
<path d="M1151.43 644.115C1146.65 647.33 1145.35 653.897 1148.57 658.686L1150.97 662.266C1150.57 664.215 1150.56 666.226 1150.94 668.181C1151.32 670.135 1152.09 671.994 1153.2 673.647C1157.8 680.509 1167.15 682.346 1174.01 677.738C1180.87 673.131 1182.71 663.785 1178.1 656.923C1176.99 655.27 1175.56 653.856 1173.9 652.763C1172.23 651.67 1170.37 650.921 1168.41 650.559L1166 646.979C1162.79 642.191 1156.22 640.9 1151.43 644.115ZM1153.11 646.606C1156.54 644.302 1161.21 645.22 1163.51 648.651L1164.66 650.363C1162.11 650.526 1159.56 651.305 1157.29 652.832C1155.01 654.359 1153.33 656.422 1152.21 658.726L1151.06 657.013C1148.76 653.582 1149.68 648.909 1153.11 646.606ZM1158.96 655.323C1164.48 651.618 1171.91 653.079 1175.61 658.596C1179.32 664.112 1177.86 671.543 1172.34 675.248C1166.82 678.952 1159.39 677.491 1155.69 671.975C1151.98 666.458 1153.44 659.027 1158.96 655.323ZM1163.98 662.795C1163.32 663.238 1162.86 663.926 1162.71 664.707C1162.55 665.487 1162.71 666.297 1163.16 666.958C1163.78 667.879 1164.81 668.33 1165.84 668.263L1168.58 672.348L1171.08 670.675L1168.33 666.591C1168.79 665.66 1168.76 664.534 1168.14 663.613C1167.7 662.952 1167.01 662.495 1166.23 662.342C1165.45 662.188 1164.64 662.351 1163.98 662.795Z" fill="black"/>
<path d="M952.433 403.083L928.184 393.465" stroke="black" stroke-width="2" stroke-miterlimit="10" stroke-linecap="round" stroke-linejoin="round"/>
<path d="M935.465 410.479L945.083 386.23" stroke="black" stroke-width="2" stroke-miterlimit="10" stroke-linecap="round" stroke-linejoin="round"/>
<path d="M732 577.139C732 562.119 743.961 550 758.617 550C773.274 550 785.235 562.119 785.235 577.139" stroke="black" stroke-width="2" stroke-miterlimit="10" stroke-linecap="round" stroke-linejoin="round"/>
<path d="M428.44 597.732C416.81 597.732 418.833 577 404 577" stroke="black" stroke-width="2" stroke-miterlimit="10" stroke-linecap="round" stroke-linejoin="round"/>
<path d="M477.32 597.732C465.69 597.732 467.712 577 452.88 577" stroke="black" stroke-width="2" stroke-miterlimit="10" stroke-linecap="round" stroke-linejoin="round"/>
<path d="M428.44 597.732C440.07 597.732 438.047 577 452.88 577" stroke="black" stroke-width="2" stroke-miterlimit="10" stroke-linecap="round" stroke-linejoin="round"/>
<path d="M477.32 597.732C488.95 597.732 486.927 577 501.76 577" stroke="black" stroke-width="2" stroke-miterlimit="10" stroke-linecap="round" stroke-linejoin="round"/>
<path d="M165 524H225.541" stroke="black" stroke-width="2" stroke-miterlimit="10" stroke-linecap="round" stroke-linejoin="round"/>
<path d="M94.9787 430.287C90.1275 433.292 83.6035 431.957 80.5924 426.948C77.5813 422.106 78.9195 415.595 83.938 412.589C88.7892 409.584 95.3133 410.92 98.3243 415.929C101.335 420.77 99.8299 427.115 94.9787 430.287Z" stroke="black" stroke-width="2" stroke-miterlimit="10" stroke-linecap="round" stroke-linejoin="round"/>
<path d="M284.979 538.287C280.127 541.292 273.603 539.957 270.592 534.948C267.581 530.106 268.92 523.595 273.938 520.589C278.789 517.584 285.313 518.92 288.324 523.928C291.335 528.77 289.83 535.115 284.979 538.287Z" stroke="black" stroke-width="2" stroke-miterlimit="10" stroke-linecap="round" stroke-linejoin="round"/>
<path d="M849.979 526.287C845.127 529.292 838.603 527.957 835.592 522.948C832.581 518.106 833.92 511.595 838.938 508.589C843.789 505.584 850.313 506.92 853.324 511.928C856.335 516.77 854.83 523.115 849.979 526.287Z" stroke="black" stroke-width="2" stroke-miterlimit="10" stroke-linecap="round" stroke-linejoin="round"/>
<path d="M1216.98 446.287C1212.13 449.292 1205.6 447.957 1202.59 442.948C1199.58 438.106 1200.92 431.595 1205.94 428.589C1210.79 425.584 1217.31 426.92 1220.32 431.929C1223.34 436.77 1221.83 443.115 1216.98 446.287Z" stroke="black" stroke-width="2" stroke-miterlimit="10" stroke-linecap="round" stroke-linejoin="round"/>
<path d="M124.638 594.232C131.655 596.603 139.32 596.149 146.008 592.965C148.423 595.925 150.219 599.34 151.288 603.007C152.357 606.674 152.678 610.518 152.232 614.312C151.786 618.105 150.582 621.771 148.691 625.09C146.801 628.409 144.262 631.314 141.227 633.633C137.447 634.183 133.595 633.969 129.9 633.002C126.204 632.034 122.741 630.334 119.716 628.002C116.691 625.67 114.166 622.753 112.29 619.426C110.414 616.099 109.226 612.428 108.797 608.633C115.748 606.073 121.43 600.908 124.638 594.232Z" stroke="black" stroke-width="2" stroke-linecap="round" stroke-linejoin="round"/>
<path d="M855 694L915.541 694" stroke="black" stroke-width="2" stroke-miterlimit="10" stroke-linecap="round" stroke-linejoin="round"/>
<path d="M613.433 498.253C607.897 496.638 602.028 499.856 600.413 505.392L599.205 509.532C597.449 510.47 595.897 511.749 594.641 513.295C593.385 514.84 592.451 516.621 591.893 518.532C589.578 526.466 594.158 534.818 602.092 537.132C610.026 539.447 618.378 534.867 620.692 526.933C621.249 525.021 621.419 523.018 621.191 521.039C620.963 519.061 620.342 517.148 619.365 515.413L620.573 511.273C622.188 505.736 618.97 499.868 613.433 498.253ZM612.593 501.133C616.56 502.29 618.85 506.466 617.693 510.433L617.115 512.413C615.353 510.555 613.122 509.1 610.493 508.333C607.864 507.566 605.2 507.595 602.715 508.213L603.293 506.233C604.45 502.265 608.626 499.976 612.593 501.133ZM609.653 511.213C616.032 513.074 619.673 519.714 617.812 526.093C615.951 532.472 609.311 536.113 602.932 534.253C596.553 532.392 592.912 525.751 594.773 519.372C596.633 512.993 603.274 509.352 609.653 511.213ZM607.132 519.853C606.369 519.63 605.548 519.72 604.85 520.102C604.152 520.485 603.635 521.129 603.412 521.893C603.102 522.958 603.416 524.039 604.13 524.789L602.752 529.513L605.632 530.353L607.01 525.629C608.015 525.381 608.862 524.638 609.172 523.573C609.395 522.809 609.305 521.988 608.923 521.29C608.54 520.593 607.896 520.075 607.132 519.853Z" fill="black"/>
<path d="M414.531 364.995C418.527 366.345 422.892 366.086 426.7 364.273C428.075 365.958 429.098 367.903 429.707 369.991C430.315 372.079 430.498 374.268 430.244 376.429C429.99 378.589 429.304 380.676 428.228 382.566C427.151 384.456 425.706 386.11 423.977 387.43C421.825 387.744 419.632 387.622 417.528 387.071C415.423 386.52 413.451 385.552 411.729 384.224C410.006 382.896 408.568 381.235 407.5 379.341C406.432 377.446 405.755 375.356 405.511 373.195C409.469 371.737 412.704 368.796 414.531 364.995Z" stroke="black" stroke-width="2" stroke-linecap="round" stroke-linejoin="round"/>
<path d="M35.4333 470.115C30.6451 473.33 29.3545 479.897 32.5697 484.686L34.9738 488.266C34.5678 490.215 34.5552 492.226 34.9367 494.181C35.3183 496.135 36.0864 497.994 37.1958 499.647C41.8033 506.509 51.1492 508.346 58.0108 503.738C64.8724 499.131 66.7092 489.785 62.1017 482.923C60.991 481.27 59.5614 479.856 57.8968 478.763C56.2321 477.67 54.366 476.921 52.4079 476.559L50.0038 472.979C46.7886 468.191 40.2215 466.9 35.4333 470.115ZM37.1057 472.606C40.5365 470.302 45.2095 471.22 47.5132 474.651L48.663 476.363C46.1071 476.526 43.5606 477.305 41.2867 478.832C39.0128 480.359 37.3286 482.422 36.21 484.726L35.0603 483.013C32.7565 479.582 33.6749 474.909 37.1057 472.606ZM42.9591 481.323C48.4758 477.618 55.9068 479.079 59.6111 484.596C63.3155 490.112 61.8551 497.543 56.3384 501.248C50.8218 504.952 43.3908 503.491 39.6864 497.975C35.982 492.458 37.4425 485.027 42.9591 481.323ZM47.9764 488.795C47.3158 489.238 46.8585 489.926 46.7051 490.707C46.5517 491.487 46.7146 492.297 47.1582 492.958C47.777 493.879 48.8082 494.33 49.8418 494.263L52.5845 498.348L55.0751 496.675L52.3323 492.591C52.7856 491.66 52.7582 490.534 52.1394 489.613C51.6958 488.952 51.008 488.495 50.2273 488.342C49.4466 488.188 48.6369 488.351 47.9764 488.795Z" fill="black"/>
<path d="M641.672 621.282C648.689 623.653 656.354 623.199 663.042 620.016C665.457 622.975 667.253 626.39 668.322 630.057C669.391 633.724 669.712 637.568 669.266 641.362C668.82 645.156 667.616 648.821 665.725 652.14C663.835 655.459 661.296 658.364 658.261 660.683C654.481 661.234 650.629 661.019 646.934 660.052C643.238 659.084 639.775 657.384 636.75 655.052C633.725 652.72 631.2 649.804 629.324 646.476C627.448 643.149 626.26 639.478 625.831 635.683C632.782 633.124 638.464 627.959 641.672 621.282Z" stroke="black" stroke-width="2" stroke-linecap="round" stroke-linejoin="round"/>
</g>
</svg>
