<svg width="30" height="27" viewBox="0 0 30 27" fill="none" xmlns="http://www.w3.org/2000/svg">
<path d="M14.0664 0.400338C13.8098 0.400839 13.5532 0.406716 13.2969 0.417964C12.746 0.515901 12.4916 0.757088 12.3535 1.03315C12.2013 1.33753 12.2072 1.74709 12.3769 2.11128C12.5467 2.47565 12.8582 2.77353 13.293 2.88478C13.7279 2.99603 14.3265 2.93853 15.1133 2.43559L15.7422 3.41996C14.7536 4.05184 13.797 4.21853 13.0039 4.01559C12.2109 3.81265 11.6225 3.2579 11.3184 2.6054C11.0319 1.99065 10.9793 1.2694 11.2541 0.628901C8.57175 1.06265 6.143 2.09128 4.27744 3.53903C3.66431 4.20703 3.60431 4.9834 3.87306 5.51365C4.17494 6.10903 4.88619 6.54365 6.30869 6.09365L6.66219 7.20696C4.87594 7.77196 3.40362 7.17021 2.83219 6.0429C2.69281 5.76809 2.60769 5.47065 2.57425 5.16396C2.27337 5.52096 2.00175 5.89259 1.76175 6.27921L1.76962 6.28296C1.23125 7.50896 1.219 8.35815 1.43362 8.90996C1.64837 9.46184 2.09831 9.81246 2.79112 10.0057C4.17662 10.392 6.42019 9.9259 8.00006 8.74596C8.67631 8.24096 9.31737 7.01615 9.37319 6.06628C9.401 5.59128 9.30037 5.21603 9.10162 4.9764C8.90287 4.73678 8.58462 4.55746 7.92581 4.56428L7.91412 3.3964C8.81956 3.38703 9.55475 3.69353 10.0001 4.2304C10.4453 4.76728 10.5788 5.45865 10.5391 6.13465C10.4597 7.48671 9.75194 8.8954 8.69925 9.68153C6.832 11.0762 4.36575 11.6569 2.47862 11.1308C1.60437 10.887 0.830498 10.3567 0.431748 9.53515C-0.164877 12.3755 0.701936 15.0139 2.35162 16.8398C2.56725 17.0785 2.79675 17.3042 3.03725 17.5135C2.86512 17.0206 2.78625 16.5073 2.80475 16.0077C2.83787 15.1124 3.18487 14.2361 3.881 13.6308C4.45187 13.1342 5.2405 12.8477 6.18369 12.8496C6.24656 12.8496 6.31081 12.8507 6.37506 12.8533C6.52194 12.8596 6.67275 12.8723 6.82631 12.8925L6.67381 14.0507C5.69956 13.9227 5.06725 14.1458 4.64656 14.5117C4.22594 14.8775 3.99387 15.425 3.97075 16.0507C3.9245 17.3022 4.72512 18.7636 6.45137 19.1875L6.44937 19.1992C8.14887 19.5236 10.0454 19.2225 11.9494 18.0605C11.9505 18.0597 11.9521 18.0594 11.9532 18.0586C12.3495 17.7805 12.5629 17.5081 12.6681 17.2734C12.7922 16.9964 12.7896 16.7552 12.7012 16.496C12.5247 15.9779 11.8925 15.4453 11.3126 15.2968C10.375 15.0568 9.77937 15.3866 9.50012 15.7793C9.22087 16.1718 9.20387 16.5575 9.63487 16.8925L8.918 17.8143C8.03131 17.1248 7.97475 15.9089 8.54894 15.1015C8.97969 14.496 9.7355 14.0812 10.6467 14.0547C10.6851 14.0533 10.7235 14.0526 10.7619 14.0528C11.0311 14.0547 11.3113 14.0917 11.6017 14.1659C12.5708 14.414 13.4667 15.1207 13.8067 16.119C13.8975 16.3866 13.9372 16.6689 13.924 16.9512C14.9684 16.4175 16.0697 15.9437 17.1916 15.5878C19.0764 14.7265 19.8935 13.2167 19.8616 11.9453C19.8294 10.6645 19.0374 9.58653 17.2131 9.40615L17.3284 8.24403C19.62 8.47065 20.9822 10.1095 21.0276 11.9159C21.054 12.9684 20.668 14.0636 19.8909 14.9959C20.8954 14.8834 21.8936 14.9025 22.8615 15.0976C22.6645 14.6931 22.569 14.2552 22.5823 13.8202C22.6246 12.443 23.7961 11.1582 25.637 11.1386C25.7628 11.1374 25.8885 11.1419 26.0139 11.1522L25.9201 12.3163C24.3622 12.1914 23.7764 13.0092 23.7502 13.8573C23.7245 14.696 24.2843 15.6349 25.889 15.7595C27.6577 15.7752 28.9257 14.8159 29.5471 13.3904C30.379 11.4819 29.9844 8.62059 27.3694 6.00365C27.3199 5.95409 27.2707 5.90409 27.2209 5.85521C27.1935 6.08829 27.1337 6.3164 27.0433 6.53296C26.5902 7.61984 25.5287 8.35346 24.4261 8.5584C22.9052 8.84103 21.658 8.22421 21.0824 7.28303C20.5067 6.34196 20.6579 5.01115 21.6936 4.31053L22.348 5.27928C21.7909 5.65603 21.768 6.16615 22.0784 6.67365C22.3889 7.18128 23.0891 7.6209 24.2132 7.41203C24.9198 7.28065 25.7067 6.7039 25.9651 6.0839C26.0944 5.7739 26.1194 5.46753 25.9906 5.11703C25.8859 4.83234 25.6664 4.50678 25.2581 4.1639L25.2464 4.15421C23.5391 2.86753 21.7252 1.94215 19.887 1.3319C19.8881 1.3339 19.8898 1.33565 19.8909 1.33771C20.3087 2.10146 20.3397 2.96784 20.0824 3.73421C19.5678 5.26703 17.953 6.47471 15.9554 6.40796C15.5211 6.39359 15.1079 6.60296 14.7562 7.01153C14.4046 7.42009 14.1478 8.01859 14.0882 8.65609C13.9692 9.93109 14.5209 11.3365 16.6722 12.0311L16.3125 13.1425C13.7448 12.3135 12.7606 10.2958 12.9237 8.54871C13.0054 7.67528 13.3429 6.86359 13.8711 6.24996C14.3992 5.63634 15.1507 5.21228 15.9942 5.24021C17.4967 5.29034 18.6394 4.35996 18.9746 3.36128C19.1422 2.86203 19.1206 2.36521 18.8652 1.89846C18.6172 1.44521 18.1259 0.997026 17.2461 0.669964C16.1961 0.48761 15.1322 0.397391 14.0664 0.400338ZM20.3925 16.1465C17.7728 16.3596 14.9321 17.609 12.5625 19.0566C9.06375 21.194 5.38187 20.7274 2.7695 18.7891C3.79725 22.4668 7.439 23.2133 11.2382 22.2832C11.6184 22.1403 11.992 21.8745 12.3106 21.5313C12.7516 21.0558 13.0712 20.4394 13.1718 19.9297L14.3183 20.1563C14.1655 20.9302 13.7509 21.6979 13.1679 22.3263C12.6086 22.9291 11.8798 23.4107 11.0371 23.5372C10.6142 24.479 10.2662 25.3922 10.1249 26.0313C9.90306 27.035 11.0128 27.4203 11.5097 26.4082C12.6986 23.9867 14.3766 21.8313 16.4726 19.9727C18.1016 18.9007 19.4979 17.5788 20.3926 16.1465H20.3925Z" fill="#67CEEF"/>
</svg>
