<svg width="32" height="32" viewBox="0 0 32 32" fill="none" xmlns="http://www.w3.org/2000/svg">
<path d="M15.0664 3.40034C14.8098 3.40084 14.5532 3.40672 14.2969 3.41796C13.746 3.5159 13.4916 3.75709 13.3535 4.03315C13.2013 4.33753 13.2072 4.74709 13.3769 5.11128C13.5467 5.47565 13.8582 5.77353 14.293 5.88478C14.7279 5.99603 15.3265 5.93853 16.1133 5.43559L16.7422 6.41996C15.7536 7.05184 14.797 7.21853 14.0039 7.01559C13.2109 6.81265 12.6225 6.2579 12.3184 5.6054C12.0319 4.99065 11.9793 4.2694 12.2541 3.6289C9.57175 4.06265 7.143 5.09128 5.27744 6.53903C4.66431 7.20703 4.60431 7.9834 4.87306 8.51365C5.17494 9.10903 5.88619 9.54365 7.30869 9.09365L7.66219 10.207C5.87594 10.772 4.40362 10.1702 3.83219 9.0429C3.69281 8.76809 3.60769 8.47065 3.57425 8.16396C3.27337 8.52096 3.00175 8.89259 2.76175 9.27921L2.76962 9.28296C2.23125 10.509 2.219 11.3582 2.43362 11.91C2.64837 12.4618 3.09831 12.8125 3.79112 13.0057C5.17662 13.392 7.42019 12.9259 9.00006 11.746C9.67631 11.241 10.3174 10.0162 10.3732 9.06628C10.401 8.59128 10.3004 8.21603 10.1016 7.9764C9.90287 7.73678 9.58462 7.55746 8.92581 7.56428L8.91412 6.3964C9.81956 6.38703 10.5547 6.69353 11.0001 7.2304C11.4453 7.76728 11.5788 8.45865 11.5391 9.13465C11.4597 10.4867 10.7519 11.8954 9.69925 12.6815C7.832 14.0762 5.36575 14.6569 3.47862 14.1308C2.60437 13.887 1.8305 13.3567 1.43175 12.5352C0.835123 15.3755 1.70194 18.0139 3.35162 19.8398C3.56725 20.0785 3.79675 20.3042 4.03725 20.5135C3.86512 20.0206 3.78625 19.5073 3.80475 19.0077C3.83787 18.1124 4.18487 17.2361 4.881 16.6308C5.45187 16.1342 6.2405 15.8477 7.18369 15.8496C7.24656 15.8496 7.31081 15.8507 7.37506 15.8533C7.52194 15.8596 7.67275 15.8723 7.82631 15.8925L7.67381 17.0507C6.69956 16.9227 6.06725 17.1458 5.64656 17.5117C5.22594 17.8775 4.99387 18.425 4.97075 19.0507C4.9245 20.3022 5.72512 21.7636 7.45137 22.1875L7.44937 22.1992C9.14887 22.5236 11.0454 22.2225 12.9494 21.0605C12.9505 21.0597 12.9521 21.0594 12.9532 21.0586C13.3495 20.7805 13.5629 20.5081 13.6681 20.2734C13.7922 19.9964 13.7896 19.7552 13.7012 19.496C13.5247 18.9779 12.8925 18.4453 12.3126 18.2968C11.375 18.0568 10.7794 18.3866 10.5001 18.7793C10.2209 19.1718 10.2039 19.5575 10.6349 19.8925L9.918 20.8143C9.03131 20.1248 8.97475 18.9089 9.54894 18.1015C9.97969 17.496 10.7355 17.0812 11.6467 17.0547C11.6851 17.0533 11.7235 17.0526 11.7619 17.0528C12.0311 17.0547 12.3113 17.0917 12.6017 17.1659C13.5708 17.414 14.4667 18.1207 14.8067 19.119C14.8975 19.3866 14.9372 19.6689 14.924 19.9512C15.9684 19.4175 17.0697 18.9437 18.1916 18.5878C20.0764 17.7265 20.8935 16.2167 20.8616 14.9453C20.8294 13.6645 20.0374 12.5865 18.2131 12.4062L18.3284 11.244C20.62 11.4707 21.9822 13.1095 22.0276 14.9159C22.054 15.9684 21.668 17.0636 20.8909 17.9959C21.8954 17.8834 22.8936 17.9025 23.8615 18.0976C23.6645 17.6931 23.569 17.2552 23.5823 16.8202C23.6246 15.443 24.7961 14.1582 26.637 14.1386C26.7628 14.1374 26.8885 14.1419 27.0139 14.1522L26.9201 15.3163C25.3622 15.1914 24.7764 16.0092 24.7502 16.8573C24.7245 17.696 25.2843 18.6349 26.889 18.7595C28.6577 18.7752 29.9257 17.8159 30.5471 16.3904C31.379 14.4819 30.9844 11.6206 28.3694 9.00365C28.3199 8.95409 28.2707 8.90409 28.2209 8.85521C28.1935 9.08829 28.1337 9.3164 28.0433 9.53296C27.5902 10.6198 26.5287 11.3535 25.4261 11.5584C23.9052 11.841 22.658 11.2242 22.0824 10.283C21.5067 9.34196 21.6579 8.01115 22.6936 7.31053L23.348 8.27928C22.7909 8.65603 22.768 9.16615 23.0784 9.67365C23.3889 10.1813 24.0891 10.6209 25.2132 10.412C25.9198 10.2807 26.7067 9.7039 26.9651 9.0839C27.0944 8.7739 27.1194 8.46753 26.9906 8.11703C26.8859 7.83234 26.6664 7.50678 26.2581 7.1639L26.2464 7.15421C24.5391 5.86753 22.7252 4.94215 20.887 4.3319C20.8881 4.3339 20.8898 4.33565 20.8909 4.33771C21.3087 5.10146 21.3397 5.96784 21.0824 6.73421C20.5678 8.26703 18.953 9.47471 16.9554 9.40796C16.5211 9.39359 16.1079 9.60296 15.7562 10.0115C15.4046 10.4201 15.1478 11.0186 15.0882 11.6561C14.9692 12.9311 15.5209 14.3365 17.6722 15.0311L17.3125 16.1425C14.7448 15.3135 13.7606 13.2958 13.9237 11.5487C14.0054 10.6753 14.3429 9.86359 14.8711 9.24996C15.3992 8.63634 16.1507 8.21228 16.9942 8.24021C18.4967 8.29034 19.6394 7.35996 19.9746 6.36128C20.1422 5.86203 20.1206 5.36521 19.8652 4.89846C19.6172 4.44521 19.1259 3.99703 18.2461 3.66996C17.1961 3.48761 16.1322 3.39739 15.0664 3.40034ZM21.3925 19.1465C18.7728 19.3596 15.9321 20.609 13.5625 22.0566C10.0637 24.194 6.38187 23.7274 3.7695 21.7891C4.79725 25.4668 8.439 26.2133 12.2382 25.2832C12.6184 25.1403 12.992 24.8745 13.3106 24.5313C13.7516 24.0558 14.0712 23.4394 14.1718 22.9297L15.3183 23.1563C15.1655 23.9302 14.7509 24.6979 14.1679 25.3263C13.6086 25.9291 12.8798 26.4107 12.0371 26.5372C11.6142 27.479 11.2662 28.3922 11.1249 29.0313C10.9031 30.035 12.0128 30.4203 12.5097 29.4082C13.6986 26.9867 15.3766 24.8313 17.4726 22.9727C19.1016 21.9007 20.4979 20.5788 21.3926 19.1465H21.3925Z" fill="black"/>
</svg>
