<svg width="60" height="60" viewBox="0 0 60 60" fill="none" xmlns="http://www.w3.org/2000/svg">
<path d="M35.4334 11.2529C29.8967 9.6378 24.0283 12.8557 22.4131 18.3924L21.2055 22.5324C19.4488 23.4701 17.897 24.7492 16.6413 26.2946C15.3855 27.84 14.451 29.6207 13.8927 31.5321C11.5782 39.4664 16.1577 47.818 24.092 50.1325C32.0263 52.447 40.3779 47.8675 42.6923 39.9332C43.2493 38.0213 43.4187 36.0175 43.1909 34.0393C42.963 32.0611 42.3423 30.1483 41.3653 28.4131L42.5729 24.2732C44.188 18.7364 40.9702 12.868 35.4334 11.2529ZM34.5933 14.1329C38.5605 15.2901 40.8502 19.4659 39.693 23.4331L39.1154 25.413C37.3527 23.5551 35.1224 22.0998 32.493 21.3328C29.8636 20.5658 27.2003 20.5951 24.7155 21.2125L25.2931 19.2325C26.4504 15.2654 30.6261 12.9756 34.5933 14.1329ZM31.6529 24.2128C38.0321 26.0736 41.6732 32.7139 39.8124 39.0931C37.9515 45.4722 31.3112 49.1133 24.9321 47.2525C18.5529 45.3917 14.9118 38.7513 16.7726 32.3722C18.6335 25.9931 25.2738 22.3519 31.6529 24.2128ZM29.1326 32.8527C28.3688 32.6299 27.5478 32.7196 26.8501 33.1021C26.1525 33.4847 25.6353 34.1287 25.4125 34.8925C25.1017 35.9581 25.4161 37.0389 26.13 37.7894L24.7523 42.5125L27.6322 43.3526L29.01 38.6295C30.0154 38.3806 30.8616 37.6383 31.1725 36.5727C31.3953 35.8089 31.3055 34.9879 30.923 34.2902C30.5404 33.5926 29.8964 33.0755 29.1326 32.8527Z" fill="black"/>
</svg>
