<svg width="26" height="28" viewBox="0 0 26 28" fill="none" xmlns="http://www.w3.org/2000/svg">
<path d="M11.1134 0.019697C10.8662 0.0188636 10.6183 0.0190095 10.3696 0.0201345C9.17294 0.025697 7.95713 0.0571344 6.73094 0.102634L7.08569 1.65845C8.36263 1.51407 9.76256 1.40657 11.1624 1.35282C11.9208 1.3237 12.6745 1.30832 13.4056 1.3122C15.5991 1.32363 17.5892 1.50782 18.8913 2.01232L19.448 2.2282L19.1994 2.77101C17.3831 6.73882 16.9631 10.5668 17.2477 14.3226C17.3882 9.86526 19.241 5.90076 21.6733 0.818384C18.3636 0.268384 14.8212 0.0320093 11.1134 0.0196343V0.019697ZM12.8655 2.44407C12.3193 2.44451 11.7624 2.45557 11.2056 2.47695C8.60106 2.57695 6.00563 2.88257 4.31406 3.23295C6.20363 6.73788 7.73219 10.2509 8.71925 13.6756C8.84203 13.6715 8.96492 13.6724 9.08763 13.6784C9.33875 13.6907 9.58713 13.7248 9.82981 13.7778C8.82513 10.5654 7.68075 7.60276 6.25819 4.64457L5.93675 3.9762L6.66713 3.84695C8.50188 3.52207 10.3956 3.39632 12.198 3.39576C12.3182 3.39576 12.438 3.39626 12.5573 3.39726C13.7025 3.40726 14.8063 3.46651 15.8289 3.5557L16.5198 3.61601L16.3183 4.27957C15.1495 8.12726 14.9206 12.2594 15.5814 16.1909C15.5925 16.2011 15.6034 16.2113 15.6143 16.2216C15.8526 16.1381 16.0755 16.0529 16.2833 15.9619C15.7674 11.7498 15.996 7.40426 17.9226 2.88688C16.8475 2.61295 15.2086 2.46976 13.4077 2.44726C13.227 2.44502 13.0462 2.44392 12.8655 2.44407ZM21.9246 2.90563C19.9898 7.00288 18.6156 10.2863 18.3904 13.8308C19.6428 9.6557 22.0634 5.91301 24.8219 3.50845C23.8644 3.26959 22.8979 3.0685 21.9246 2.90563ZM3.4895 4.0637C2.317 4.30545 1.17163 4.61232 0.0637512 5.03632C0.602876 5.50382 1.5775 6.37351 2.76 7.52938C3.30425 6.9692 3.85931 6.41576 4.43825 5.91251C4.13161 5.29135 3.81533 4.67501 3.4895 4.0637ZM12.3659 4.53132C11.5147 4.5272 10.6433 4.55157 9.76881 4.61213C9.67706 5.46726 9.17131 6.26726 8.56725 7.05401C9.53169 9.33332 10.3646 11.6592 11.1145 14.1286C12.2629 14.4674 13.3991 14.8678 14.3195 15.3476C13.9776 12.694 14.0244 9.97495 14.4683 7.31588C13.6629 6.48401 13.2434 5.56026 13.2098 4.54463C12.9286 4.53714 12.6473 4.53271 12.3659 4.53132ZM23.7421 6.21788C22.1964 8.04913 20.8345 10.3427 19.9064 12.8374C21.6104 10.4135 23.7058 8.52288 25.9363 7.18738C25.2096 6.85359 24.4781 6.53039 23.7421 6.21788ZM4.94581 6.96532C4.03369 7.78957 3.13244 8.77888 2.19388 9.72138C4.21194 10.9208 5.93081 12.3413 7.333 13.9501C7.42006 13.9173 7.508 13.8877 7.59644 13.8608C6.94031 11.6048 6.04113 9.2962 4.94581 6.96532ZM19.5325 14.7623C18.5077 15.9991 17.5429 16.652 16.2144 17.1729C16.3638 17.7492 16.1419 18.4108 15.631 18.9168C15.3305 19.2143 14.9529 19.5535 14.4008 19.7739C14.4804 19.8211 14.5617 19.8654 14.6445 19.9069C15.4173 20.2925 16.7824 20.1681 18.0508 19.5913C19.3151 19.0163 20.4446 18.0231 20.8633 17.0169C21.0731 16.4513 20.9233 16.1563 20.5559 15.7236C20.2944 15.4158 19.9125 15.1055 19.5325 14.7624V14.7623ZM8.90256 14.7989C8.23288 14.7928 7.55275 14.9861 6.99069 15.4089C6.19131 16.0104 5.57506 17.0829 5.56956 18.9048V18.9173L5.56894 18.9298C5.38644 22.7661 5.66894 24.5361 6.22863 25.4964C6.72263 26.344 7.54425 26.7498 8.74613 27.496C8.80338 27.3456 8.863 27.1607 8.91894 26.9274C9.06125 26.3337 9.179 25.5183 9.25363 24.6164C9.40294 22.8128 9.38113 20.6471 9.13144 19.0886L8.9995 18.2643L9.813 18.4514C11.7889 18.906 12.9193 18.9597 13.5755 18.8439C14.2319 18.7281 14.4543 18.4988 14.8393 18.1174C15.2012 17.7592 15.1944 17.6303 15.1178 17.4286C15.0411 17.2269 14.7335 16.8946 14.2116 16.5766C13.1676 15.9406 11.3938 15.3509 9.73569 14.9111C9.46374 14.8392 9.18386 14.8015 8.90256 14.7989ZM20.7213 19.1374C20.0955 19.7471 19.3254 20.2475 18.5165 20.6154C17.2051 21.2118 15.7626 21.4846 14.5658 21.0874C14.1433 21.2447 13.8979 21.4254 13.7741 21.5749C13.6042 21.7802 13.5936 21.9312 13.6511 22.1474C13.7087 22.3637 13.8802 22.6204 14.0923 22.8052C14.3044 22.9899 14.5564 23.0859 14.6523 23.0904C17.5769 23.2293 18.8426 22.39 20.4196 21.4165C20.8794 21.1326 21.0554 20.5576 21.0114 19.9833C20.9893 19.6962 20.9058 19.4264 20.8093 19.2564C20.7854 19.2131 20.7558 19.1731 20.7213 19.1374ZM10.3346 19.7059C10.5051 21.2727 10.5079 23.1006 10.3748 24.7093C10.2968 25.6513 10.1763 26.5079 10.0129 27.1896C9.94188 27.4862 9.86369 27.7492 9.76919 27.9808L18.9378 27.5767C18.8343 27.1924 18.7288 26.8064 18.6233 26.4203C18.2711 26.5376 17.911 26.63 17.5458 26.6968L17.5486 26.7424L17.0288 26.7748C16.7088 26.8132 16.3756 26.8344 16.0299 26.8368L10.7886 27.1624L10.9444 26.437C11.4411 24.1241 11.4869 22.0877 11.1806 19.8599C10.8976 19.8141 10.6155 19.7627 10.3346 19.7059H10.3346ZM12.3329 19.9987C12.5796 21.9945 12.5499 23.8993 12.1825 25.9487L13.3865 25.8739C13.1976 25.5954 13.0679 25.281 13.0053 24.9503C12.9243 24.5203 12.9693 24.0417 13.2506 23.6459C13.2631 23.6284 13.2765 23.6116 13.2898 23.5946C12.9619 23.2918 12.6881 22.9033 12.5639 22.4369C12.4318 21.9404 12.5143 21.3325 12.9075 20.8575C13.0374 20.7006 13.1945 20.559 13.3789 20.4315C13.2158 20.3015 13.0728 20.1637 12.9493 20.0201C12.7578 20.0214 12.5528 20.0143 12.3329 19.9987ZM20.6245 22.6103C19.1585 23.5011 17.5114 24.3525 14.5989 24.2143C14.5038 24.2096 14.4093 24.1968 14.3165 24.1758C14.2394 24.2104 14.1983 24.2543 14.1676 24.2975C14.1074 24.3822 14.0719 24.535 14.1108 24.7421C14.1888 25.1563 14.5811 25.6101 14.9464 25.6526C17.533 25.9534 19.3201 25.1073 20.4053 24.1228C20.9053 23.6692 20.9095 23.3791 20.8359 23.0634C20.799 22.9057 20.7178 22.7528 20.6245 22.6103ZM20.2068 25.6766C20.0332 25.7855 19.8549 25.8868 19.6726 25.9804C19.7758 26.3586 19.8791 26.7368 19.9812 27.115L21.2262 26.8918C20.9049 26.6176 20.6536 26.3321 20.4518 26.0483C20.3617 25.9214 20.2823 25.7982 20.2068 25.6766Z" fill="#67CEEF"/>
</svg>
