<svg width="32" height="32" viewBox="0 0 32 32" fill="none" xmlns="http://www.w3.org/2000/svg">
<path d="M14.1134 2.0197C13.8662 2.01886 13.6183 2.01901 13.3696 2.02013C12.1729 2.0257 10.9571 2.05713 9.73094 2.10263L10.0857 3.65845C11.3626 3.51407 12.7626 3.40657 14.1624 3.35282C14.9208 3.3237 15.6745 3.30832 16.4056 3.3122C18.5991 3.32363 20.5892 3.50782 21.8913 4.01232L22.448 4.2282L22.1994 4.77101C20.3831 8.73882 19.9631 12.5668 20.2477 16.3226C20.3882 11.8653 22.241 7.90076 24.6733 2.81838C21.3636 2.26838 17.8212 2.03201 14.1134 2.01963V2.0197ZM15.8655 4.44407C15.3193 4.44451 14.7624 4.45557 14.2056 4.47695C11.6011 4.57695 9.00563 4.88257 7.31406 5.23295C9.20363 8.73788 10.7322 12.2509 11.7193 15.6756C11.842 15.6715 11.9649 15.6724 12.0876 15.6784C12.3388 15.6907 12.5871 15.7248 12.8298 15.7778C11.8251 12.5654 10.6808 9.60276 9.25819 6.64457L8.93675 5.9762L9.66713 5.84695C11.5019 5.52207 13.3956 5.39632 15.198 5.39576C15.3182 5.39576 15.438 5.39626 15.5573 5.39726C16.7025 5.40726 17.8063 5.46651 18.8289 5.5557L19.5198 5.61601L19.3183 6.27957C18.1495 10.1273 17.9206 14.2594 18.5814 18.1909C18.5925 18.2011 18.6034 18.2113 18.6143 18.2216C18.8526 18.1381 19.0755 18.0529 19.2833 17.9619C18.7674 13.7498 18.996 9.40426 20.9226 4.88688C19.8475 4.61295 18.2086 4.46976 16.4077 4.44726C16.227 4.44502 16.0462 4.44392 15.8655 4.44407ZM24.9246 4.90563C22.9898 9.00288 21.6156 12.2863 21.3904 15.8308C22.6428 11.6557 25.0634 7.91301 27.8219 5.50845C26.8644 5.26959 25.8979 5.0685 24.9246 4.90563ZM6.4895 6.0637C5.317 6.30545 4.17163 6.61232 3.06375 7.03632C3.60288 7.50382 4.5775 8.37351 5.76 9.52938C6.30425 8.9692 6.85931 8.41576 7.43825 7.91251C7.13161 7.29135 6.81533 6.67501 6.4895 6.0637ZM15.3659 6.53132C14.5147 6.5272 13.6433 6.55157 12.7688 6.61213C12.6771 7.46726 12.1713 8.26726 11.5673 9.05401C12.5317 11.3333 13.3646 13.6592 14.1145 16.1286C15.2629 16.4674 16.3991 16.8678 17.3195 17.3476C16.9776 14.694 17.0244 11.9749 17.4683 9.31588C16.6629 8.48401 16.2434 7.56026 16.2098 6.54463C15.9286 6.53714 15.6473 6.53271 15.3659 6.53132ZM26.7421 8.21788C25.1964 10.0491 23.8345 12.3427 22.9064 14.8374C24.6104 12.4135 26.7058 10.5229 28.9363 9.18738C28.2096 8.85359 27.4781 8.53039 26.7421 8.21788ZM7.94581 8.96532C7.03369 9.78957 6.13244 10.7789 5.19388 11.7214C7.21194 12.9208 8.93081 14.3413 10.333 15.9501C10.4201 15.9173 10.508 15.8877 10.5964 15.8608C9.94031 13.6048 9.04113 11.2962 7.94581 8.96532ZM22.5325 16.7623C21.5077 17.9991 20.5429 18.652 19.2144 19.1729C19.3638 19.7492 19.1419 20.4108 18.631 20.9168C18.3305 21.2143 17.9529 21.5535 17.4008 21.7739C17.4804 21.8211 17.5617 21.8654 17.6445 21.9069C18.4173 22.2925 19.7824 22.1681 21.0508 21.5913C22.3151 21.0163 23.4446 20.0231 23.8633 19.0169C24.0731 18.4513 23.9233 18.1563 23.5559 17.7236C23.2944 17.4158 22.9125 17.1055 22.5325 16.7624V16.7623ZM11.9026 16.7989C11.2329 16.7928 10.5528 16.9861 9.99069 17.4089C9.19131 18.0104 8.57506 19.0829 8.56956 20.9048V20.9173L8.56894 20.9298C8.38644 24.7661 8.66894 26.5361 9.22863 27.4964C9.72263 28.344 10.5443 28.7498 11.7461 29.496C11.8034 29.3456 11.863 29.1607 11.9189 28.9274C12.0613 28.3337 12.179 27.5183 12.2536 26.6164C12.4029 24.8128 12.3811 22.6471 12.1314 21.0886L11.9995 20.2643L12.813 20.4514C14.7889 20.906 15.9193 20.9597 16.5755 20.8439C17.2319 20.7281 17.4543 20.4988 17.8393 20.1174C18.2012 19.7592 18.1944 19.6303 18.1178 19.4286C18.0411 19.2269 17.7335 18.8946 17.2116 18.5766C16.1676 17.9406 14.3938 17.3509 12.7357 16.9111C12.4637 16.8392 12.1839 16.8015 11.9026 16.7989ZM23.7213 21.1374C23.0955 21.7471 22.3254 22.2475 21.5165 22.6154C20.2051 23.2118 18.7626 23.4846 17.5658 23.0874C17.1433 23.2447 16.8979 23.4254 16.7741 23.5749C16.6042 23.7802 16.5936 23.9312 16.6511 24.1474C16.7087 24.3637 16.8802 24.6204 17.0923 24.8052C17.3044 24.9899 17.5564 25.0859 17.6523 25.0904C20.5769 25.2293 21.8426 24.39 23.4196 23.4165C23.8794 23.1326 24.0554 22.5576 24.0114 21.9833C23.9893 21.6962 23.9058 21.4264 23.8093 21.2564C23.7854 21.2131 23.7558 21.1731 23.7213 21.1374ZM13.3346 21.7059C13.5051 23.2727 13.5079 25.1006 13.3748 26.7093C13.2968 27.6513 13.1763 28.5079 13.0129 29.1896C12.9419 29.4862 12.8637 29.7492 12.7692 29.9808L21.9378 29.5767C21.8343 29.1924 21.7288 28.8064 21.6233 28.4203C21.2711 28.5376 20.911 28.63 20.5458 28.6968L20.5486 28.7424L20.0288 28.7748C19.7088 28.8132 19.3756 28.8344 19.0299 28.8368L13.7886 29.1624L13.9444 28.437C14.4411 26.1241 14.4869 24.0877 14.1806 21.8599C13.8976 21.8141 13.6155 21.7627 13.3346 21.7059H13.3346ZM15.3329 21.9987C15.5796 23.9945 15.5499 25.8993 15.1825 27.9487L16.3865 27.8739C16.1976 27.5954 16.0679 27.281 16.0053 26.9503C15.9243 26.5203 15.9693 26.0417 16.2506 25.6459C16.2631 25.6284 16.2765 25.6116 16.2898 25.5946C15.9619 25.2918 15.6881 24.9033 15.5639 24.4369C15.4318 23.9404 15.5143 23.3325 15.9075 22.8575C16.0374 22.7006 16.1945 22.559 16.3789 22.4315C16.2158 22.3015 16.0728 22.1637 15.9493 22.0201C15.7578 22.0214 15.5528 22.0143 15.3329 21.9987ZM23.6245 24.6103C22.1585 25.5011 20.5114 26.3525 17.5989 26.2143C17.5038 26.2096 17.4093 26.1968 17.3165 26.1758C17.2394 26.2104 17.1983 26.2543 17.1676 26.2975C17.1074 26.3822 17.0719 26.535 17.1108 26.7421C17.1888 27.1563 17.5811 27.6101 17.9464 27.6526C20.533 27.9534 22.3201 27.1073 23.4053 26.1228C23.9053 25.6692 23.9095 25.3791 23.8359 25.0634C23.799 24.9057 23.7178 24.7528 23.6245 24.6103ZM23.2068 27.6766C23.0332 27.7855 22.8549 27.8868 22.6726 27.9804C22.7758 28.3586 22.8791 28.7368 22.9812 29.115L24.2262 28.8918C23.9049 28.6176 23.6536 28.3321 23.4518 28.0483C23.3617 27.9214 23.2823 27.7982 23.2068 27.6766Z" fill="black"/>
</svg>
