<svg width="52" height="52" viewBox="0 0 52 52" fill="none" xmlns="http://www.w3.org/2000/svg">
<path d="M20.8867 29.0333C18.6984 27.0834 15.9034 26.065 13 26V32.5L4.33337 23.8334L13 15.1667V21.6667C16.6184 21.6667 20.15 22.9017 23.0317 25.1117C22.1504 26.3209 21.4294 27.639 20.8867 29.0333ZM39 32.5V26C37.9167 26 29.25 26.3467 28.275 35.1C31.655 36.2917 33.4317 40.0184 32.24 43.3984C31.6632 45.023 30.4658 46.3526 28.9103 47.0958C27.3548 47.8391 25.568 47.9353 23.9417 47.3633C20.5834 46.15 18.785 42.445 19.9767 39.065C20.5834 37.2017 22.1 35.75 23.9417 35.1C24.2458 31.3553 25.9793 27.8713 28.7829 25.3702C31.5865 22.8692 35.2451 21.543 39 21.6667V15.1667L47.6667 23.8334L39 32.5ZM28.1667 41.1667C28.1667 40.592 27.9384 40.0409 27.5321 39.6346C27.1258 39.2283 26.5747 39 26 39C25.4254 39 24.8743 39.2283 24.468 39.6346C24.0616 40.0409 23.8334 40.592 23.8334 41.1667C23.8334 41.7413 24.0616 42.2924 24.468 42.6987C24.8743 43.1051 25.4254 43.3334 26 43.3334C26.5747 43.3334 27.1258 43.1051 27.5321 42.6987C27.9384 42.2924 28.1667 41.7413 28.1667 41.1667ZM23.8334 24.0934C25.09 22.6634 26.5417 21.4284 28.1667 20.4317V10.8334H34.6667L26 2.16669L17.3334 10.8334H23.8334V24.0934Z" fill="#67CEEF"/>
</svg>
