<svg width="354" height="387" viewBox="0 0 354 387" fill="none" xmlns="http://www.w3.org/2000/svg">
<g filter="url(#filter0_d_827_2229)">
<path d="M285.44 20C290.167 20 294 23.8318 294 28.5586V37.6777C290.878 34.9228 286.777 33.251 282.285 33.251C272.502 33.2511 264.571 41.1824 264.571 50.9658C264.572 60.749 272.502 68.6795 282.285 68.6797C286.777 68.6797 290.877 67.0072 294 64.252V318.44C294 323.167 290.168 327 285.441 327H64.9121C67.3143 323.977 68.75 320.151 68.75 315.989C68.7499 306.206 60.8186 298.275 51.0352 298.275C41.252 298.276 33.3214 306.206 33.3213 315.989C33.3213 320.151 34.757 323.977 37.1592 327H28.5596C23.8327 327 20.0003 323.168 20 318.441V28.5596C20 23.8327 23.8318 20.0003 28.5586 20H285.44Z" fill="white"/>
</g>
<defs>
<filter id="filter0_d_827_2229" x="0" y="0" width="354" height="387" filterUnits="userSpaceOnUse" color-interpolation-filters="sRGB">
<feFlood flood-opacity="0" result="BackgroundImageFix"/>
<feColorMatrix in="SourceAlpha" type="matrix" values="0 0 0 0 0 0 0 0 0 0 0 0 0 0 0 0 0 0 127 0" result="hardAlpha"/>
<feOffset dx="20" dy="20"/>
<feGaussianBlur stdDeviation="20"/>
<feComposite in2="hardAlpha" operator="out"/>
<feColorMatrix type="matrix" values="0 0 0 0 0.592157 0 0 0 0 0.137255 0 0 0 0 0.937255 0 0 0 0.16 0"/>
<feBlend mode="normal" in2="BackgroundImageFix" result="effect1_dropShadow_827_2229"/>
<feBlend mode="normal" in="SourceGraphic" in2="effect1_dropShadow_827_2229" result="shape"/>
</filter>
</defs>
</svg>
