<svg width="52" height="52" viewBox="0 0 52 52" fill="none" xmlns="http://www.w3.org/2000/svg">
<path fill-rule="evenodd" clip-rule="evenodd" d="M10.8333 23.8333C10.8333 22.1261 11.1696 20.4357 11.8229 18.8584C12.4762 17.2812 13.4338 15.8481 14.6409 14.6409C15.8481 13.4338 17.2812 12.4762 18.8584 11.8229C20.4357 11.1696 22.1261 10.8333 23.8333 10.8333C25.5405 10.8333 27.231 11.1696 28.8082 11.8229C30.3854 12.4762 31.8186 13.4338 33.0257 14.6409C34.2329 15.8481 35.1905 17.2812 35.8438 18.8584C36.4971 20.4357 36.8333 22.1261 36.8333 23.8333C36.8333 27.2811 35.4637 30.5877 33.0257 33.0257C30.5877 35.4637 27.2811 36.8333 23.8333 36.8333C20.3855 36.8333 17.0789 35.4637 14.6409 33.0257C12.203 30.5877 10.8333 27.2811 10.8333 23.8333ZM23.8333 6.5C21.0749 6.5004 18.3563 7.15914 15.9036 8.42149C13.451 9.68383 11.335 11.5133 9.73154 13.7579C8.12811 16.0025 7.08355 18.5974 6.68466 21.3268C6.28577 24.0563 6.54407 26.8416 7.43811 29.4512C8.33214 32.0607 9.83608 34.4192 11.8249 36.3307C13.8138 38.2421 16.2301 39.6513 18.8731 40.4411C21.5161 41.2308 24.3094 41.3784 27.0209 40.8715C29.7324 40.3646 32.2838 39.2179 34.463 37.5267L41.8015 44.8652C42.2101 45.2598 42.7574 45.4782 43.3255 45.4733C43.8936 45.4684 44.437 45.2405 44.8388 44.8388C45.2405 44.4371 45.4684 43.8936 45.4733 43.3255C45.4782 42.7574 45.2598 42.2101 44.8652 41.8015L37.5267 34.463C39.5159 31.9008 40.7462 28.8319 41.0778 25.6052C41.4094 22.3784 40.8289 19.1234 39.4023 16.2102C37.9757 13.2971 35.7603 10.8426 33.0081 9.12605C30.2558 7.40948 27.077 6.49964 23.8333 6.5ZM23.8333 32.5C26.1319 32.5 28.3363 31.5869 29.9616 29.9616C31.5869 28.3363 32.5 26.1319 32.5 23.8333C32.5 21.5348 31.5869 19.3304 29.9616 17.7051C28.3363 16.0798 26.1319 15.1667 23.8333 15.1667C21.5348 15.1667 19.3304 16.0798 17.7051 17.7051C16.0798 19.3304 15.1667 21.5348 15.1667 23.8333C15.1667 26.1319 16.0798 28.3363 17.7051 29.9616C19.3304 31.5869 21.5348 32.5 23.8333 32.5Z" fill="#67CEEF"/>
</svg>
