<svg width="47" height="43" viewBox="0 0 47 43" fill="none" xmlns="http://www.w3.org/2000/svg">
<path d="M17.672 2.28246C24.6894 4.65331 32.3542 4.19895 39.0424 1.01564C41.4573 3.97512 43.2527 7.38984 44.3218 11.0569C45.3909 14.7239 45.712 18.5685 45.2659 22.3621C44.8198 26.1557 43.6157 29.8209 41.7252 33.1399C39.8346 36.459 37.2961 39.3641 34.2606 41.6827C30.4808 42.2335 26.6289 42.019 22.9337 41.0517C19.2384 40.0845 15.7753 38.3843 12.7502 36.0522C9.72502 33.7201 7.19952 30.8036 5.32376 27.4762C3.44799 24.1488 2.26024 20.4782 1.83108 16.6827C8.78205 14.1235 14.4636 8.95868 17.672 2.28246Z" stroke="black" stroke-width="2" stroke-linecap="round" stroke-linejoin="round"/>
</svg>
