<svg width="57" height="57" viewBox="0 0 57 57" fill="none" xmlns="http://www.w3.org/2000/svg">
<path d="M11.1606 31.0473L26.2545 20.9082L44.413 21.8532M23.1898 9.8241L33.15 45.8475" stroke="black" stroke-width="1.5"/>
<path d="M13.0495 36.4908C16.8281 43.993 24.4732 46.2838 29.2825 46.9705C30.7754 47.1842 31.523 47.2916 33.4054 46.7712C35.2897 46.2502 35.8741 45.7744 37.0451 44.8242C37.986 44.0629 39.023 43.124 40.0455 42.018M44.2447 35.6289C45.6393 32.3082 46.1987 28.3116 44.9192 23.684L44.1152 20.7762C42.4817 14.8684 41.665 11.9145 40.6919 11.1137C39.7211 10.3142 36.6815 10.1305 30.6009 9.76553L29.4423 9.69613C26.2732 9.50449 24.6898 9.40934 23.1898 9.8241C21.6897 10.2389 20.3801 11.1339 17.7596 12.9263L16.8007 13.5792C11.7718 17.0179 9.25829 18.737 8.83613 19.9216C8.41263 21.1086 9.22988 24.0643 10.8629 29.9703L11.1606 31.0473" stroke="black" stroke-width="1.5" stroke-linecap="round"/>
</svg>
