<svg width="30" height="26" viewBox="0 0 30 26" fill="none" xmlns="http://www.w3.org/2000/svg">
<path d="M0.333313 26L15 0.666626L29.6666 26H0.333313ZM15 22C15.3778 22 15.6946 21.872 15.9506 21.616C16.2066 21.36 16.3342 21.0435 16.3333 20.6666C16.3324 20.2897 16.2044 19.9733 15.9493 19.7173C15.6942 19.4613 15.3778 19.3333 15 19.3333C14.6222 19.3333 14.3058 19.4613 14.0506 19.7173C13.7955 19.9733 13.6675 20.2897 13.6666 20.6666C13.6658 21.0435 13.7938 21.3604 14.0506 21.6173C14.3075 21.8742 14.624 22.0017 15 22ZM13.6666 18H16.3333V11.3333H13.6666V18Z" fill="#67CEEF"/>
</svg>
